<svg xmlns="http://www.w3.org/2000/svg" viewBox="0 0 256 256">
  <path d="M128 20L40 60v60c0 55 40 100 88 110 48-10 88-55 88-110V60L128 20z" fill="#1e3a8a"/>
  <path d="M128 35L55 70v50c0 48 35 88 73 97 38-9 73-49 73-97V70L128 35z" fill="#06b6d4"/>
  <rect x="108" y="100" width="40" height="50" rx="4" fill="#1e3a8a"/>
  <path d="M118 100v-12c0-5.5 4.5-10 10-10s10 4.5 10 10v12" fill="none" stroke="#1e3a8a" stroke-width="8" stroke-linecap="round"/>
  <circle cx="128" cy="120" r="6" fill="#06b6d4"/>
  <rect x="125" y="126" width="6" height="16" rx="2" fill="#06b6d4"/>
</svg>